<mxfile host="app.diagrams.net" agent="Mozilla/5.0 (Windows NT 10.0; Win64; x64) AppleWebKit/537.36 (KHTML, like Gecko) Chrome/134.0.0.0 Whale/4.31.304.16 Safari/537.36" version="26.2.13">
  <diagram name="페이지-1" id="6mHY8gk-Gh_47pWTYYgV">
    <mxGraphModel>
      <root>
        <mxCell id="0" />
        <mxCell id="1" parent="0" />
        <mxCell id="2" value="Baemin Application" style="whiteSpace=wrap;strokeWidth=2;" vertex="1" parent="1">
          <mxGeometry x="2682" y="8" width="198" height="54" as="geometry" />
        </mxCell>
        <mxCell id="3" value="User Experience" style="whiteSpace=wrap;strokeWidth=2;" vertex="1" parent="1">
          <mxGeometry x="215" y="112" width="176" height="54" as="geometry" />
        </mxCell>
        <mxCell id="4" value="Delivery Management" style="whiteSpace=wrap;strokeWidth=2;" vertex="1" parent="1">
          <mxGeometry x="1729" y="112" width="214" height="54" as="geometry" />
        </mxCell>
        <mxCell id="5" value="Restaurant Partner" style="whiteSpace=wrap;strokeWidth=2;" vertex="1" parent="1">
          <mxGeometry x="2684" y="112" width="195" height="54" as="geometry" />
        </mxCell>
        <mxCell id="6" value="Payment System" style="whiteSpace=wrap;strokeWidth=2;" vertex="1" parent="1">
          <mxGeometry x="3403" y="112" width="177" height="54" as="geometry" />
        </mxCell>
        <mxCell id="7" value="Customer Support" style="whiteSpace=wrap;strokeWidth=2;" vertex="1" parent="1">
          <mxGeometry x="4075" y="112" width="188" height="54" as="geometry" />
        </mxCell>
        <mxCell id="8" value="User Interface" style="whiteSpace=wrap;strokeWidth=2;" vertex="1" parent="1">
          <mxGeometry x="8" y="216" width="162" height="54" as="geometry" />
        </mxCell>
        <mxCell id="9" value="Order Tracking" style="whiteSpace=wrap;strokeWidth=2;" vertex="1" parent="1">
          <mxGeometry x="220" y="216" width="165" height="54" as="geometry" />
        </mxCell>
        <mxCell id="10" value="Push Notifications" style="whiteSpace=wrap;strokeWidth=2;" vertex="1" parent="1">
          <mxGeometry x="748" y="216" width="189" height="54" as="geometry" />
        </mxCell>
        <mxCell id="11" value="Delivery Agents" style="whiteSpace=wrap;strokeWidth=2;" vertex="1" parent="1">
          <mxGeometry x="1259" y="216" width="170" height="54" as="geometry" />
        </mxCell>
        <mxCell id="12" value="Delivery Tracking" style="whiteSpace=wrap;strokeWidth=2;" vertex="1" parent="1">
          <mxGeometry x="1745" y="216" width="183" height="54" as="geometry" />
        </mxCell>
        <mxCell id="13" value="Route Optimization" style="whiteSpace=wrap;strokeWidth=2;" vertex="1" parent="1">
          <mxGeometry x="1978" y="216" width="199" height="54" as="geometry" />
        </mxCell>
        <mxCell id="14" value="Onboarding Process" style="whiteSpace=wrap;strokeWidth=2;" vertex="1" parent="1">
          <mxGeometry x="2226" y="216" width="199" height="54" as="geometry" />
        </mxCell>
        <mxCell id="15" value="Menu Management" style="whiteSpace=wrap;strokeWidth=2;" vertex="1" parent="1">
          <mxGeometry x="2684" y="216" width="193" height="54" as="geometry" />
        </mxCell>
        <mxCell id="16" value="Sales Analytics" style="whiteSpace=wrap;strokeWidth=2;" vertex="1" parent="1">
          <mxGeometry x="2937" y="216" width="164" height="54" as="geometry" />
        </mxCell>
        <mxCell id="17" value="Payment Gateway" style="whiteSpace=wrap;strokeWidth=2;" vertex="1" parent="1">
          <mxGeometry x="3156" y="216" width="189" height="54" as="geometry" />
        </mxCell>
        <mxCell id="18" value="Promotional Codes" style="whiteSpace=wrap;strokeWidth=2;" vertex="1" parent="1">
          <mxGeometry x="3395" y="216" width="193" height="54" as="geometry" />
        </mxCell>
        <mxCell id="19" value="Refund Management" style="whiteSpace=wrap;strokeWidth=2;" vertex="1" parent="1">
          <mxGeometry x="3638" y="216" width="205" height="54" as="geometry" />
        </mxCell>
        <mxCell id="20" value="Chat Support" style="whiteSpace=wrap;strokeWidth=2;" vertex="1" parent="1">
          <mxGeometry x="3894" y="216" width="153" height="54" as="geometry" />
        </mxCell>
        <mxCell id="21" value="FAQ Section" style="whiteSpace=wrap;strokeWidth=2;" vertex="1" parent="1">
          <mxGeometry x="4097" y="216" width="144" height="54" as="geometry" />
        </mxCell>
        <mxCell id="22" value="Feedback System" style="whiteSpace=wrap;strokeWidth=2;" vertex="1" parent="1">
          <mxGeometry x="4291" y="216" width="183" height="54" as="geometry" />
        </mxCell>
        <mxCell id="23" value="Real-time Updates" style="whiteSpace=wrap;strokeWidth=2;" vertex="1" parent="1">
          <mxGeometry x="75" y="320" width="192" height="54" as="geometry" />
        </mxCell>
        <mxCell id="24" value="Estimated Delivery Time" style="whiteSpace=wrap;strokeWidth=2;" vertex="1" parent="1">
          <mxGeometry x="317" y="320" width="235" height="54" as="geometry" />
        </mxCell>
        <mxCell id="25" value="Personalized Messages" style="whiteSpace=wrap;strokeWidth=2;" vertex="1" parent="1">
          <mxGeometry x="602" y="320" width="219" height="54" as="geometry" />
        </mxCell>
        <mxCell id="26" value="Order Confirmations" style="whiteSpace=wrap;strokeWidth=2;" vertex="1" parent="1">
          <mxGeometry x="871" y="320" width="206" height="54" as="geometry" />
        </mxCell>
        <mxCell id="27" value="Part-Time Delivery" style="whiteSpace=wrap;strokeWidth=2;" vertex="1" parent="1">
          <mxGeometry x="1127" y="320" width="194" height="54" as="geometry" />
        </mxCell>
        <mxCell id="28" value="Full-Time Delivery" style="whiteSpace=wrap;strokeWidth=2;" vertex="1" parent="1">
          <mxGeometry x="1370" y="320" width="191" height="54" as="geometry" />
        </mxCell>
        <mxCell id="29" value="Geolocation Services" style="whiteSpace=wrap;strokeWidth=2;" vertex="1" parent="1">
          <mxGeometry x="1611" y="320" width="209" height="54" as="geometry" />
        </mxCell>
        <mxCell id="30" value="Delivery History" style="whiteSpace=wrap;strokeWidth=2;" vertex="1" parent="1">
          <mxGeometry x="1876" y="320" width="174" height="54" as="geometry" />
        </mxCell>
        <mxCell id="31" value="Verification Process" style="whiteSpace=wrap;strokeWidth=2;" vertex="1" parent="1">
          <mxGeometry x="2099" y="320" width="200" height="54" as="geometry" />
        </mxCell>
        <mxCell id="32" value="App Training" style="whiteSpace=wrap;strokeWidth=2;" vertex="1" parent="1">
          <mxGeometry x="2364" y="320" width="149" height="54" as="geometry" />
        </mxCell>
        <mxCell id="33" value="Item Customization" style="whiteSpace=wrap;strokeWidth=2;" vertex="1" parent="1">
          <mxGeometry x="2562" y="320" width="199" height="54" as="geometry" />
        </mxCell>
        <mxCell id="34" value="Item Availability" style="whiteSpace=wrap;strokeWidth=2;" vertex="1" parent="1">
          <mxGeometry x="2812" y="320" width="176" height="54" as="geometry" />
        </mxCell>
        <mxCell id="35" value="Credit/Debit Cards" style="whiteSpace=wrap;strokeWidth=2;" vertex="1" parent="1">
          <mxGeometry x="3038" y="320" width="196" height="54" as="geometry" />
        </mxCell>
        <mxCell id="36" value="Mobile Wallets" style="whiteSpace=wrap;strokeWidth=2;" vertex="1" parent="1">
          <mxGeometry x="3431" y="320" width="164" height="54" as="geometry" />
        </mxCell>
        <mxCell id="37" value="Live Chat" style="whiteSpace=wrap;strokeWidth=2;" vertex="1" parent="1">
          <mxGeometry x="3645" y="320" width="127" height="54" as="geometry" />
        </mxCell>
        <mxCell id="38" value="Email Support" style="whiteSpace=wrap;strokeWidth=2;" vertex="1" parent="1">
          <mxGeometry x="3987" y="320" width="160" height="54" as="geometry" />
        </mxCell>
        <mxCell id="39" value="" style="curved=1;startArrow=none;endArrow=block;exitX=0;exitY=0.54;entryX=0.5;entryY=0;" edge="1" parent="1" source="2" target="3">
          <mxGeometry relative="1" as="geometry">
            <Array as="points">
              <mxPoint x="303" y="87" />
            </Array>
          </mxGeometry>
        </mxCell>
        <mxCell id="40" value="" style="curved=1;startArrow=none;endArrow=block;exitX=0;exitY=0.6;entryX=0.5;entryY=0;" edge="1" parent="1" source="2" target="4">
          <mxGeometry relative="1" as="geometry">
            <Array as="points">
              <mxPoint x="1836" y="87" />
            </Array>
          </mxGeometry>
        </mxCell>
        <mxCell id="41" value="" style="curved=1;startArrow=none;endArrow=block;exitX=0.5;exitY=1;entryX=0.5;entryY=0;" edge="1" parent="1" source="2" target="5">
          <mxGeometry relative="1" as="geometry">
            <Array as="points" />
          </mxGeometry>
        </mxCell>
        <mxCell id="42" value="" style="curved=1;startArrow=none;endArrow=block;exitX=1;exitY=0.63;entryX=0.5;entryY=0;" edge="1" parent="1" source="2" target="6">
          <mxGeometry relative="1" as="geometry">
            <Array as="points">
              <mxPoint x="3492" y="87" />
            </Array>
          </mxGeometry>
        </mxCell>
        <mxCell id="43" value="" style="curved=1;startArrow=none;endArrow=block;exitX=1;exitY=0.57;entryX=0.5;entryY=0;" edge="1" parent="1" source="2" target="7">
          <mxGeometry relative="1" as="geometry">
            <Array as="points">
              <mxPoint x="4169" y="87" />
            </Array>
          </mxGeometry>
        </mxCell>
        <mxCell id="44" value="" style="curved=1;startArrow=none;endArrow=block;exitX=0;exitY=0.9;entryX=0.5;entryY=0;" edge="1" parent="1" source="3" target="8">
          <mxGeometry relative="1" as="geometry">
            <Array as="points">
              <mxPoint x="89" y="191" />
            </Array>
          </mxGeometry>
        </mxCell>
        <mxCell id="45" value="" style="curved=1;startArrow=none;endArrow=block;exitX=0.5;exitY=1;entryX=0.5;entryY=0;" edge="1" parent="1" source="3" target="9">
          <mxGeometry relative="1" as="geometry">
            <Array as="points" />
          </mxGeometry>
        </mxCell>
        <mxCell id="46" value="" style="curved=1;startArrow=none;endArrow=block;exitX=1;exitY=0.66;entryX=0.5;entryY=0;" edge="1" parent="1" source="3" target="10">
          <mxGeometry relative="1" as="geometry">
            <Array as="points">
              <mxPoint x="843" y="191" />
            </Array>
          </mxGeometry>
        </mxCell>
        <mxCell id="47" value="" style="curved=1;startArrow=none;endArrow=block;exitX=0;exitY=0.71;entryX=0.5;entryY=0;" edge="1" parent="1" source="4" target="11">
          <mxGeometry relative="1" as="geometry">
            <Array as="points">
              <mxPoint x="1344" y="191" />
            </Array>
          </mxGeometry>
        </mxCell>
        <mxCell id="48" value="" style="curved=1;startArrow=none;endArrow=block;exitX=0.5;exitY=1;entryX=0.5;entryY=0;" edge="1" parent="1" source="4" target="12">
          <mxGeometry relative="1" as="geometry">
            <Array as="points" />
          </mxGeometry>
        </mxCell>
        <mxCell id="49" value="" style="curved=1;startArrow=none;endArrow=block;exitX=1;exitY=0.93;entryX=0.5;entryY=0;" edge="1" parent="1" source="4" target="13">
          <mxGeometry relative="1" as="geometry">
            <Array as="points">
              <mxPoint x="2077" y="191" />
            </Array>
          </mxGeometry>
        </mxCell>
        <mxCell id="50" value="" style="curved=1;startArrow=none;endArrow=block;exitX=0;exitY=0.71;entryX=0.5;entryY=0;" edge="1" parent="1" source="5" target="14">
          <mxGeometry relative="1" as="geometry">
            <Array as="points">
              <mxPoint x="2326" y="191" />
            </Array>
          </mxGeometry>
        </mxCell>
        <mxCell id="51" value="" style="curved=1;startArrow=none;endArrow=block;exitX=0.5;exitY=1;entryX=0.5;entryY=0;" edge="1" parent="1" source="5" target="15">
          <mxGeometry relative="1" as="geometry">
            <Array as="points" />
          </mxGeometry>
        </mxCell>
        <mxCell id="52" value="" style="curved=1;startArrow=none;endArrow=block;exitX=1;exitY=0.89;entryX=0.5;entryY=0;" edge="1" parent="1" source="5" target="16">
          <mxGeometry relative="1" as="geometry">
            <Array as="points">
              <mxPoint x="3019" y="191" />
            </Array>
          </mxGeometry>
        </mxCell>
        <mxCell id="53" value="" style="curved=1;startArrow=none;endArrow=block;exitX=0;exitY=0.85;entryX=0.5;entryY=0;" edge="1" parent="1" source="6" target="17">
          <mxGeometry relative="1" as="geometry">
            <Array as="points">
              <mxPoint x="3251" y="191" />
            </Array>
          </mxGeometry>
        </mxCell>
        <mxCell id="54" value="" style="curved=1;startArrow=none;endArrow=block;exitX=0.5;exitY=1;entryX=0.5;entryY=0;" edge="1" parent="1" source="6" target="18">
          <mxGeometry relative="1" as="geometry">
            <Array as="points" />
          </mxGeometry>
        </mxCell>
        <mxCell id="55" value="" style="curved=1;startArrow=none;endArrow=block;exitX=1;exitY=0.84;entryX=0.5;entryY=0;" edge="1" parent="1" source="6" target="19">
          <mxGeometry relative="1" as="geometry">
            <Array as="points">
              <mxPoint x="3741" y="191" />
            </Array>
          </mxGeometry>
        </mxCell>
        <mxCell id="56" value="" style="curved=1;startArrow=none;endArrow=block;exitX=0;exitY=0.96;entryX=0.5;entryY=0;" edge="1" parent="1" source="7" target="20">
          <mxGeometry relative="1" as="geometry">
            <Array as="points">
              <mxPoint x="3970" y="191" />
            </Array>
          </mxGeometry>
        </mxCell>
        <mxCell id="57" value="" style="curved=1;startArrow=none;endArrow=block;exitX=0.5;exitY=1;entryX=0.5;entryY=0;" edge="1" parent="1" source="7" target="21">
          <mxGeometry relative="1" as="geometry">
            <Array as="points" />
          </mxGeometry>
        </mxCell>
        <mxCell id="58" value="" style="curved=1;startArrow=none;endArrow=block;exitX=1;exitY=0.92;entryX=0.5;entryY=0;" edge="1" parent="1" source="7" target="22">
          <mxGeometry relative="1" as="geometry">
            <Array as="points">
              <mxPoint x="4383" y="191" />
            </Array>
          </mxGeometry>
        </mxCell>
        <mxCell id="59" value="" style="curved=1;startArrow=none;endArrow=block;exitX=0.09;exitY=1;entryX=0.5;entryY=0;" edge="1" parent="1" source="9" target="23">
          <mxGeometry relative="1" as="geometry">
            <Array as="points">
              <mxPoint x="171" y="295" />
            </Array>
          </mxGeometry>
        </mxCell>
        <mxCell id="60" value="" style="curved=1;startArrow=none;endArrow=block;exitX=0.91;exitY=1;entryX=0.5;entryY=0;" edge="1" parent="1" source="9" target="24">
          <mxGeometry relative="1" as="geometry">
            <Array as="points">
              <mxPoint x="434" y="295" />
            </Array>
          </mxGeometry>
        </mxCell>
        <mxCell id="61" value="" style="curved=1;startArrow=none;endArrow=block;exitX=0.14;exitY=1;entryX=0.5;entryY=0;" edge="1" parent="1" source="10" target="25">
          <mxGeometry relative="1" as="geometry">
            <Array as="points">
              <mxPoint x="711" y="295" />
            </Array>
          </mxGeometry>
        </mxCell>
        <mxCell id="62" value="" style="curved=1;startArrow=none;endArrow=block;exitX=0.86;exitY=1;entryX=0.5;entryY=0;" edge="1" parent="1" source="10" target="26">
          <mxGeometry relative="1" as="geometry">
            <Array as="points">
              <mxPoint x="974" y="295" />
            </Array>
          </mxGeometry>
        </mxCell>
        <mxCell id="63" value="" style="curved=1;startArrow=none;endArrow=block;exitX=0.13;exitY=1;entryX=0.5;entryY=0;" edge="1" parent="1" source="11" target="27">
          <mxGeometry relative="1" as="geometry">
            <Array as="points">
              <mxPoint x="1223" y="295" />
            </Array>
          </mxGeometry>
        </mxCell>
        <mxCell id="64" value="" style="curved=1;startArrow=none;endArrow=block;exitX=0.87;exitY=1;entryX=0.5;entryY=0;" edge="1" parent="1" source="11" target="28">
          <mxGeometry relative="1" as="geometry">
            <Array as="points">
              <mxPoint x="1466" y="295" />
            </Array>
          </mxGeometry>
        </mxCell>
        <mxCell id="65" value="" style="curved=1;startArrow=none;endArrow=block;exitX=0.16;exitY=1;entryX=0.5;entryY=0;" edge="1" parent="1" source="12" target="29">
          <mxGeometry relative="1" as="geometry">
            <Array as="points">
              <mxPoint x="1716" y="295" />
            </Array>
          </mxGeometry>
        </mxCell>
        <mxCell id="66" value="" style="curved=1;startArrow=none;endArrow=block;exitX=0.86;exitY=1;entryX=0.5;entryY=0;" edge="1" parent="1" source="12" target="30">
          <mxGeometry relative="1" as="geometry">
            <Array as="points">
              <mxPoint x="1962" y="295" />
            </Array>
          </mxGeometry>
        </mxCell>
        <mxCell id="67" value="" style="curved=1;startArrow=none;endArrow=block;exitX=0.17;exitY=1;entryX=0.5;entryY=0;" edge="1" parent="1" source="14" target="31">
          <mxGeometry relative="1" as="geometry">
            <Array as="points">
              <mxPoint x="2200" y="295" />
            </Array>
          </mxGeometry>
        </mxCell>
        <mxCell id="68" value="" style="curved=1;startArrow=none;endArrow=block;exitX=0.79;exitY=1;entryX=0.5;entryY=0;" edge="1" parent="1" source="14" target="32">
          <mxGeometry relative="1" as="geometry">
            <Array as="points">
              <mxPoint x="2438" y="295" />
            </Array>
          </mxGeometry>
        </mxCell>
        <mxCell id="69" value="" style="curved=1;startArrow=none;endArrow=block;exitX=0.18;exitY=1;entryX=0.5;entryY=0;" edge="1" parent="1" source="15" target="33">
          <mxGeometry relative="1" as="geometry">
            <Array as="points">
              <mxPoint x="2662" y="295" />
            </Array>
          </mxGeometry>
        </mxCell>
        <mxCell id="70" value="" style="curved=1;startArrow=none;endArrow=block;exitX=0.82;exitY=1;entryX=0.5;entryY=0;" edge="1" parent="1" source="15" target="34">
          <mxGeometry relative="1" as="geometry">
            <Array as="points">
              <mxPoint x="2900" y="295" />
            </Array>
          </mxGeometry>
        </mxCell>
        <mxCell id="71" value="" style="curved=1;startArrow=none;endArrow=block;exitX=0.18;exitY=1;entryX=0.5;entryY=0;" edge="1" parent="1" source="17" target="35">
          <mxGeometry relative="1" as="geometry">
            <Array as="points">
              <mxPoint x="3136" y="295" />
            </Array>
          </mxGeometry>
        </mxCell>
        <mxCell id="72" value="" style="curved=1;startArrow=none;endArrow=block;exitX=1;exitY=0.85;entryX=0.5;entryY=0;" edge="1" parent="1" source="17" target="36">
          <mxGeometry relative="1" as="geometry">
            <Array as="points">
              <mxPoint x="3513" y="295" />
            </Array>
          </mxGeometry>
        </mxCell>
        <mxCell id="73" value="" style="curved=1;startArrow=none;endArrow=block;exitX=0;exitY=0.78;entryX=0.5;entryY=0;" edge="1" parent="1" source="20" target="37">
          <mxGeometry relative="1" as="geometry">
            <Array as="points">
              <mxPoint x="3708" y="295" />
            </Array>
          </mxGeometry>
        </mxCell>
        <mxCell id="74" value="" style="curved=1;startArrow=none;endArrow=block;exitX=0.83;exitY=1;entryX=0.5;entryY=0;" edge="1" parent="1" source="20" target="38">
          <mxGeometry relative="1" as="geometry">
            <Array as="points">
              <mxPoint x="4067" y="295" />
            </Array>
          </mxGeometry>
        </mxCell>
      </root>
    </mxGraphModel>
  </diagram>
</mxfile>
